<mxfile host="drawio-plugin" modified="2021-03-12T22:39:02.335Z" agent="5.0 (Macintosh; Intel Mac OS X 10_14_6) AppleWebKit/537.36 (KHTML, like Gecko) Chrome/84.0.4147.105 Safari/537.36" etag="C4vmgw-gZ9_Oz3usmrNy" version="13.7.9" type="embed"><diagram id="BZbtB2VDVusUO3Xs4xWE" name="Page-1"><mxGraphModel dx="1977" dy="1161" grid="0" gridSize="10" guides="1" tooltips="1" connect="1" arrows="1" fold="1" page="1" pageScale="1" pageWidth="1100" pageHeight="850" math="0" shadow="0"><root><mxCell id="0"/><mxCell id="1" parent="0"/><mxCell id="22" style="edgeStyle=orthogonalEdgeStyle;curved=1;rounded=0;orthogonalLoop=1;jettySize=auto;html=1;exitX=0.25;exitY=1;exitDx=0;exitDy=0;entryX=0;entryY=0.5;entryDx=0;entryDy=0;" edge="1" parent="1" source="16" target="4"><mxGeometry relative="1" as="geometry"><mxPoint x="370" y="740" as="targetPoint"/></mxGeometry></mxCell><mxCell id="3" value="" style="rounded=1;whiteSpace=wrap;html=1;fillColor=#1ba1e2;strokeColor=#006EAF;fontColor=#ffffff;" vertex="1" parent="1"><mxGeometry x="210" y="363" width="250" height="130" as="geometry"/></mxCell><mxCell id="78" style="edgeStyle=orthogonalEdgeStyle;curved=1;rounded=0;orthogonalLoop=1;jettySize=auto;html=1;exitX=1;exitY=0.25;exitDx=0;exitDy=0;entryX=0.5;entryY=1;entryDx=0;entryDy=0;" edge="1" parent="1" source="4" target="50"><mxGeometry relative="1" as="geometry"/></mxCell><mxCell id="4" value="" style="rounded=1;whiteSpace=wrap;html=1;fillColor=#f0a30a;strokeColor=#BD7000;fontColor=#ffffff;" vertex="1" parent="1"><mxGeometry x="440" y="690" width="240" height="140" as="geometry"/></mxCell><mxCell id="17" style="edgeStyle=orthogonalEdgeStyle;rounded=0;orthogonalLoop=1;jettySize=auto;html=1;entryX=0.375;entryY=0.002;entryDx=0;entryDy=0;entryPerimeter=0;curved=1;" edge="1" parent="1" source="11" target="3"><mxGeometry relative="1" as="geometry"/></mxCell><mxCell id="11" value="Cow.exe" style="strokeWidth=1;shadow=0;dashed=0;align=center;html=1;shape=mxgraph.mockup.containers.window;align=left;verticalAlign=top;spacingLeft=8;strokeColor2=#008cff;strokeColor3=#c4c4c4;fontColor=#666666;mainText=;fontSize=17;labelBackgroundColor=none;" vertex="1" parent="1"><mxGeometry x="40" y="40" width="470" height="222.5" as="geometry"/></mxCell><mxCell id="13" value="&lt;pre&gt;&lt;code&gt;$ cow born Cow2 --dam Cow1 --asof YESTERDAY&lt;br&gt;&amp;nbsp;&lt;br&gt;&lt;br&gt;&lt;/code&gt;&lt;br&gt;&lt;/pre&gt;" style="text;html=1;strokeColor=none;fillColor=none;align=left;verticalAlign=top;whiteSpace=wrap;rounded=0;" vertex="1" parent="1"><mxGeometry x="40" y="70" width="470" height="60" as="geometry"/></mxCell><mxCell id="16" value="&lt;h1&gt;EnterBorn&lt;/h1&gt;&lt;div&gt;&lt;ul&gt;&lt;li&gt;Name: Cow 2&lt;/li&gt;&lt;li&gt;Dam: Cow 1&lt;/li&gt;&lt;li&gt;DOB: 2020-01-01&lt;/li&gt;&lt;/ul&gt;&lt;/div&gt;" style="text;html=1;strokeColor=none;fillColor=none;spacing=5;spacingTop=-20;whiteSpace=wrap;overflow=hidden;rounded=0;align=left;" vertex="1" parent="1"><mxGeometry x="243" y="375" width="210" height="115" as="geometry"/></mxCell><mxCell id="47" value="&lt;h1&gt;Born&lt;/h1&gt;&lt;div&gt;&lt;ul&gt;&lt;li&gt;Name: Cow 2&lt;/li&gt;&lt;li&gt;Dam: Cow 1&lt;/li&gt;&lt;li&gt;DOB: 2020-01-01&lt;/li&gt;&lt;/ul&gt;&lt;/div&gt;" style="text;html=1;strokeColor=none;fillColor=none;spacing=5;spacingTop=-20;whiteSpace=wrap;overflow=hidden;rounded=0;align=left;" vertex="1" parent="1"><mxGeometry x="460" y="702.5" width="210" height="115" as="geometry"/></mxCell><mxCell id="48" value="Cow.exe" style="strokeWidth=1;shadow=0;dashed=0;align=center;html=1;shape=mxgraph.mockup.containers.window;align=left;verticalAlign=top;spacingLeft=8;strokeColor2=#008cff;strokeColor3=#c4c4c4;fontColor=#666666;mainText=;fontSize=17;labelBackgroundColor=none;" vertex="1" parent="1"><mxGeometry x="710" y="40" width="470" height="222.5" as="geometry"/></mxCell><mxCell id="49" value="&lt;pre&gt;&lt;code&gt;$ show herd-inventory --groupby pen&lt;br&gt;&lt;br&gt;Pen&amp;nbsp; &amp;nbsp; &amp;nbsp; &amp;nbsp; &amp;nbsp; &amp;nbsp; &amp;nbsp;  Cows&lt;br&gt;-------------&amp;nbsp; &amp;nbsp; &amp;nbsp;-----------&lt;br&gt;Fresh Pen&amp;nbsp; &amp;nbsp;      60&lt;br&gt;High Pen&amp;nbsp; &amp;nbsp; &amp;nbsp;     124&lt;br&gt;Low Pen&amp;nbsp; &amp;nbsp; &amp;nbsp;      119&lt;br&gt;Dry Pen&amp;nbsp; &amp;nbsp; &amp;nbsp; &amp;nbsp;    60&lt;br&gt;&lt;/code&gt;&lt;/pre&gt;" style="text;html=1;strokeColor=none;fillColor=none;align=left;verticalAlign=top;whiteSpace=wrap;rounded=0;" vertex="1" parent="1"><mxGeometry x="750" y="81.25" width="410" height="140" as="geometry"/></mxCell><mxCell id="80" style="edgeStyle=orthogonalEdgeStyle;curved=1;rounded=0;orthogonalLoop=1;jettySize=auto;html=1;entryX=0.634;entryY=1.007;entryDx=0;entryDy=0;entryPerimeter=0;" edge="1" parent="1" source="50" target="48"><mxGeometry relative="1" as="geometry"/></mxCell><mxCell id="50" value="" style="rounded=1;whiteSpace=wrap;html=1;fillColor=#60a917;strokeColor=#2D7600;fontColor=#ffffff;" vertex="1" parent="1"><mxGeometry x="730" y="370" width="240" height="140" as="geometry"/></mxCell><mxCell id="51" value="Herd Inventory" style="shape=table;html=1;whiteSpace=wrap;startSize=30;container=1;collapsible=0;childLayout=tableLayout;fontStyle=1;align=center;rounded=0;fillColor=none;gradientColor=none;" vertex="1" parent="1"><mxGeometry x="760" y="390" width="180" height="100" as="geometry"/></mxCell><mxCell id="52" value="" style="shape=partialRectangle;html=1;whiteSpace=wrap;collapsible=0;dropTarget=0;pointerEvents=0;fillColor=none;top=0;left=0;bottom=0;right=0;points=[[0,0.5],[1,0.5]];portConstraint=eastwest;" vertex="1" parent="51"><mxGeometry y="30" width="180" height="23" as="geometry"/></mxCell><mxCell id="53" value="Name" style="shape=partialRectangle;html=1;whiteSpace=wrap;connectable=0;fillColor=none;top=0;left=0;bottom=0;right=0;overflow=hidden;" vertex="1" parent="52"><mxGeometry width="60" height="23" as="geometry"/></mxCell><mxCell id="54" value="Pen" style="shape=partialRectangle;html=1;whiteSpace=wrap;connectable=0;fillColor=none;top=0;left=0;bottom=0;right=0;overflow=hidden;" vertex="1" parent="52"><mxGeometry x="60" width="60" height="23" as="geometry"/></mxCell><mxCell id="55" value="" style="shape=partialRectangle;html=1;whiteSpace=wrap;connectable=0;fillColor=none;top=0;left=0;bottom=0;right=0;overflow=hidden;" vertex="1" parent="52"><mxGeometry x="120" width="60" height="23" as="geometry"/></mxCell><mxCell id="56" value="" style="shape=partialRectangle;html=1;whiteSpace=wrap;collapsible=0;dropTarget=0;pointerEvents=0;fillColor=none;top=0;left=0;bottom=0;right=0;points=[[0,0.5],[1,0.5]];portConstraint=eastwest;" vertex="1" parent="51"><mxGeometry y="53" width="180" height="24" as="geometry"/></mxCell><mxCell id="57" value="Cow 1" style="shape=partialRectangle;html=1;whiteSpace=wrap;connectable=0;fillColor=none;top=0;left=0;bottom=0;right=0;overflow=hidden;" vertex="1" parent="56"><mxGeometry width="60" height="24" as="geometry"/></mxCell><mxCell id="58" value="-" style="shape=partialRectangle;html=1;whiteSpace=wrap;connectable=0;fillColor=none;top=0;left=0;bottom=0;right=0;overflow=hidden;" vertex="1" parent="56"><mxGeometry x="60" width="60" height="24" as="geometry"/></mxCell><mxCell id="59" value="" style="shape=partialRectangle;html=1;whiteSpace=wrap;connectable=0;fillColor=none;top=0;left=0;bottom=0;right=0;overflow=hidden;" vertex="1" parent="56"><mxGeometry x="120" width="60" height="24" as="geometry"/></mxCell><mxCell id="60" value="" style="shape=partialRectangle;html=1;whiteSpace=wrap;collapsible=0;dropTarget=0;pointerEvents=0;fillColor=none;top=0;left=0;bottom=0;right=0;points=[[0,0.5],[1,0.5]];portConstraint=eastwest;" vertex="1" parent="51"><mxGeometry y="77" width="180" height="23" as="geometry"/></mxCell><mxCell id="61" value="Cow 2" style="shape=partialRectangle;html=1;whiteSpace=wrap;connectable=0;fillColor=none;top=0;left=0;bottom=0;right=0;overflow=hidden;" vertex="1" parent="60"><mxGeometry width="60" height="23" as="geometry"/></mxCell><mxCell id="62" value="Barn 1" style="shape=partialRectangle;html=1;whiteSpace=wrap;connectable=0;fillColor=none;top=0;left=0;bottom=0;right=0;overflow=hidden;" vertex="1" parent="60"><mxGeometry x="60" width="60" height="23" as="geometry"/></mxCell><mxCell id="63" value="" style="shape=partialRectangle;html=1;whiteSpace=wrap;connectable=0;fillColor=none;top=0;left=0;bottom=0;right=0;overflow=hidden;" vertex="1" parent="60"><mxGeometry x="120" width="60" height="23" as="geometry"/></mxCell></root></mxGraphModel></diagram></mxfile>